<?xml version="1.0" encoding="UTF-8" standalone="no"?>
<!DOCTYPE svg PUBLIC "-//W3C//DTD SVG 1.1//EN"
 "http://www.w3.org/Graphics/SVG/1.1/DTD/svg11.dtd">
<!-- Generated by graphviz version 14.1.3 (20260303.0454)
 -->
<!-- Title: FunctionalDecomposition Pages: 1 -->
<svg width="708pt" height="691pt"
 viewBox="0.00 0.00 708.00 691.00" xmlns="http://www.w3.org/2000/svg" xmlns:xlink="http://www.w3.org/1999/xlink">
<g id="graph0" class="graph" transform="scale(1 1) rotate(0) translate(18 673.16)">
<title>FunctionalDecomposition</title>
<polygon fill="white" stroke="none" points="-18,18 -18,-673.16 690,-673.16 690,18 -18,18"/>
<text xml:space="preserve" text-anchor="middle" x="336" y="-632.16" font-family="Arial" font-size="20.00">BIỂU ĐỒ PHÂN RÃ CHỨC NĂNG HỆ THỐNG RẺO CAO JOURNEYS</text>
<g id="clust1" class="cluster">
<title>cluster_tourist</title>
<path fill="#eff6ff" stroke="#3b82f6" stroke-width="1.4" d="M20,-8C20,-8 231,-8 231,-8 237,-8 243,-14 243,-20 243,-20 243,-552.25 243,-552.25 243,-558.25 237,-564.25 231,-564.25 231,-564.25 20,-564.25 20,-564.25 14,-564.25 8,-558.25 8,-552.25 8,-552.25 8,-20 8,-20 8,-14 14,-8 20,-8"/>
<text xml:space="preserve" text-anchor="middle" x="125.5" y="-548.85" font-family="Arial Bold" font-size="12.00" fill="#1e3a8a">PHÂN HỆ KHÁCH DU LỊCH (TOURIST)</text>
</g>
<g id="clust2" class="cluster">
<title>cluster_host</title>
<path fill="#f0fdf4" stroke="#16a34a" stroke-width="1.4" d="M263,-54C263,-54 429,-54 429,-54 435,-54 441,-60 441,-66 441,-66 441,-552.25 441,-552.25 441,-558.25 435,-564.25 429,-564.25 429,-564.25 263,-564.25 263,-564.25 257,-564.25 251,-558.25 251,-552.25 251,-552.25 251,-66 251,-66 251,-60 257,-54 263,-54"/>
<text xml:space="preserve" text-anchor="middle" x="346" y="-548.85" font-family="Arial Bold" font-size="12.00" fill="#14532d">PHÂN HỆ CHỦ CƠ SỞ (HOST)</text>
</g>
<g id="clust3" class="cluster">
<title>cluster_admin</title>
<path fill="#fef2f2" stroke="#dc2626" stroke-width="1.4" d="M461,-10C461,-10 652,-10 652,-10 658,-10 664,-16 664,-22 664,-22 664,-552.25 664,-552.25 664,-558.25 658,-564.25 652,-564.25 652,-564.25 461,-564.25 461,-564.25 455,-564.25 449,-558.25 449,-552.25 449,-552.25 449,-22 449,-22 449,-16 455,-10 461,-10"/>
<text xml:space="preserve" text-anchor="middle" x="556.5" y="-548.85" font-family="Arial Bold" font-size="12.00" fill="#7f1d1d">PHÂN HỆ QUẢN TRỊ VIÊN (ADMIN)</text>
</g>
<!-- system -->
<g id="node1" class="node">
<title>system</title>
<path fill="#facc15" stroke="#854d0e" stroke-width="1.5" d="M548.22,-623.91C548.22,-623.91 143.78,-623.91 143.78,-623.91 137.78,-623.91 131.78,-617.91 131.78,-611.91 131.78,-611.91 131.78,-584.25 131.78,-584.25 131.78,-578.25 137.78,-572.25 143.78,-572.25 143.78,-572.25 548.22,-572.25 548.22,-572.25 554.22,-572.25 560.22,-578.25 560.22,-584.25 560.22,-584.25 560.22,-611.91 560.22,-611.91 560.22,-617.91 554.22,-623.91 548.22,-623.91"/>
<text xml:space="preserve" text-anchor="middle" x="346" y="-600.53" font-family="Arial" font-size="14.00" fill="#422006">XÂY DỰNG WEBSITE DU LỊCH TRẢI NGHIỆM</text>
<text xml:space="preserve" text-anchor="middle" x="346" y="-584.78" font-family="Arial" font-size="14.00" fill="#422006">VĂN HÓA NÔNG NGHIỆP VÙNG NÚI VÀ TRUNG DU PHÍA BẮC</text>
</g>
<!-- tourist -->
<g id="node2" class="node">
<title>tourist</title>
<path fill="#2563eb" stroke="#1d4ed8" stroke-width="1.4" d="M190.01,-526C190.01,-526 123.98,-526 123.98,-526 117.98,-526 111.98,-520 111.98,-514 111.98,-514 111.98,-502 111.98,-502 111.98,-496 117.98,-490 123.98,-490 123.98,-490 190.01,-490 190.01,-490 196.01,-490 202.01,-496 202.01,-502 202.01,-502 202.01,-514 202.01,-514 202.01,-520 196.01,-526 190.01,-526"/>
<text xml:space="preserve" text-anchor="middle" x="157" y="-503.73" font-family="Arial" font-size="12.00" fill="white">Khách du lịch</text>
</g>
<!-- system&#45;&gt;tourist -->
<g id="edge4" class="edge">
<title>system&#45;&gt;tourist</title>
<path fill="none" stroke="#2563eb" stroke-width="1.5" d="M166.9,-571.54C166.9,-557.11 166.9,-539.62 166.9,-526.64"/>
</g>
<!-- host -->
<g id="node4" class="node">
<title>host</title>
<path fill="#16a34a" stroke="#15803d" stroke-width="1.4" d="M370.39,-526C370.39,-526 321.61,-526 321.61,-526 315.61,-526 309.61,-520 309.61,-514 309.61,-514 309.61,-502 309.61,-502 309.61,-496 315.61,-490 321.61,-490 321.61,-490 370.39,-490 370.39,-490 376.39,-490 382.39,-496 382.39,-502 382.39,-502 382.39,-514 382.39,-514 382.39,-520 376.39,-526 370.39,-526"/>
<text xml:space="preserve" text-anchor="middle" x="346" y="-503.73" font-family="Arial" font-size="12.00" fill="white">Chủ cơ sở</text>
</g>
<!-- system&#45;&gt;host -->
<g id="edge5" class="edge">
<title>system&#45;&gt;host</title>
<path fill="none" stroke="#16a34a" stroke-width="1.5" d="M346,-571.54C346,-557.11 346,-539.62 346,-526.64"/>
</g>
<!-- admin -->
<g id="node6" class="node">
<title>admin</title>
<path fill="#dc2626" stroke="#b91c1c" stroke-width="1.4" d="M557.39,-526C557.39,-526 496.61,-526 496.61,-526 490.61,-526 484.61,-520 484.61,-514 484.61,-514 484.61,-502 484.61,-502 484.61,-496 490.61,-490 496.61,-490 496.61,-490 557.39,-490 557.39,-490 563.39,-490 569.39,-496 569.39,-502 569.39,-502 569.39,-514 569.39,-514 569.39,-520 563.39,-526 557.39,-526"/>
<text xml:space="preserve" text-anchor="middle" x="527" y="-503.73" font-family="Arial" font-size="12.00" fill="white">Quản trị viên</text>
</g>
<!-- system&#45;&gt;admin -->
<g id="edge6" class="edge">
<title>system&#45;&gt;admin</title>
<path fill="none" stroke="#dc2626" stroke-width="1.5" d="M522.41,-571.54C522.41,-557.11 522.41,-539.62 522.41,-526.64"/>
</g>
<!-- tourist_functions -->
<g id="node3" class="node">
<title>tourist_functions</title>
<path fill="white" stroke="none" stroke-width="1.1" d="M214.5,-460C214.5,-460 51.5,-460 51.5,-460 45.5,-460 39.5,-454 39.5,-448 39.5,-448 39.5,-36 39.5,-36 39.5,-30 45.5,-24 51.5,-24 51.5,-24 214.5,-24 214.5,-24 220.5,-24 226.5,-30 226.5,-36 226.5,-36 226.5,-448 226.5,-448 226.5,-454 220.5,-460 214.5,-460"/>
<polygon fill="white" stroke="none" points="39.5,-24 39.5,-460 226.5,-460 226.5,-24 39.5,-24"/>
<polygon fill="#bfdbfe" stroke="none" points="39.5,-432 39.5,-460 226.5,-460 226.5,-432 39.5,-432"/>
<polygon fill="none" stroke="#2563eb" points="39.5,-432 39.5,-460 226.5,-460 226.5,-432 39.5,-432"/>
<text xml:space="preserve" text-anchor="start" x="86.5" y="-443.5" font-family="Arial" font-weight="bold" font-size="10.00" fill="#172033">1. Quản lý tài khoản</text>
<polygon fill="none" stroke="#2563eb" points="39.5,-368 39.5,-432 226.5,-432 226.5,-368 39.5,-368"/>
<text xml:space="preserve" text-anchor="start" x="47.5" y="-414.25" font-family="Arial" font-size="10.00" fill="#172033">Đăng ký Tourist hoặc Host</text>
<text xml:space="preserve" text-anchor="start" x="47.5" y="-402.25" font-family="Arial" font-size="10.00" fill="#172033">Đăng nhập thường hoặc Google</text>
<text xml:space="preserve" text-anchor="start" x="47.5" y="-390.25" font-family="Arial" font-size="10.00" fill="#172033">Cập nhật hồ sơ và ảnh đại diện</text>
<text xml:space="preserve" text-anchor="start" x="62.5" y="-378.25" font-family="Arial" font-size="10.00" fill="#172033">Đổi mật khẩu và bảo mật</text>
<polygon fill="#bfdbfe" stroke="none" points="39.5,-340 39.5,-368 226.5,-368 226.5,-340 39.5,-340"/>
<polygon fill="none" stroke="#2563eb" points="39.5,-340 39.5,-368 226.5,-368 226.5,-340 39.5,-340"/>
<text xml:space="preserve" text-anchor="start" x="63.25" y="-351.5" font-family="Arial" font-weight="bold" font-size="10.00" fill="#172033">2. Khám phá tour và nội dung</text>
<polygon fill="none" stroke="#2563eb" points="39.5,-288 39.5,-340 226.5,-340 226.5,-288 39.5,-288"/>
<text xml:space="preserve" text-anchor="start" x="47.5" y="-322.25" font-family="Arial" font-size="10.00" fill="#172033">Tìm kiếm và lọc tour</text>
<text xml:space="preserve" text-anchor="start" x="47.5" y="-310.25" font-family="Arial" font-size="10.00" fill="#172033">Xem chi tiết tour</text>
<text xml:space="preserve" text-anchor="start" x="47.5" y="-298.25" font-family="Arial" font-size="10.00" fill="#172033">Xem bài viết và điểm đến</text>
<polygon fill="#bfdbfe" stroke="none" points="39.5,-260 39.5,-288 226.5,-288 226.5,-260 39.5,-260"/>
<polygon fill="none" stroke="#2563eb" points="39.5,-260 39.5,-288 226.5,-288 226.5,-260 39.5,-260"/>
<text xml:space="preserve" text-anchor="start" x="74.5" y="-271.5" font-family="Arial" font-weight="bold" font-size="10.00" fill="#172033">3. Booking và thanh toán</text>
<polygon fill="none" stroke="#2563eb" points="39.5,-184 39.5,-260 226.5,-260 226.5,-184 39.5,-184"/>
<text xml:space="preserve" text-anchor="start" x="47.5" y="-242.25" font-family="Arial" font-size="10.00" fill="#172033">Chọn ngày và số khách</text>
<text xml:space="preserve" text-anchor="start" x="47.5" y="-230.25" font-family="Arial" font-size="10.00" fill="#172033">Kiểm tra số chỗ còn lại</text>
<text xml:space="preserve" text-anchor="start" x="47.5" y="-218.25" font-family="Arial" font-size="10.00" fill="#172033">Áp dụng mã giảm giá</text>
<text xml:space="preserve" text-anchor="start" x="47.5" y="-206.25" font-family="Arial" font-size="10.00" fill="#172033">Tạo booking</text>
<text xml:space="preserve" text-anchor="start" x="47.5" y="-194.25" font-family="Arial" font-size="10.00" fill="#172033">Thanh toán chuyển khoản hoặc VNPay</text>
<polygon fill="#bfdbfe" stroke="none" points="39.5,-156 39.5,-184 226.5,-184 226.5,-156 39.5,-156"/>
<polygon fill="none" stroke="#2563eb" points="39.5,-156 39.5,-184 226.5,-184 226.5,-156 39.5,-156"/>
<text xml:space="preserve" text-anchor="start" x="86.12" y="-167.5" font-family="Arial" font-weight="bold" font-size="10.00" fill="#172033">4. Quản lý giao dịch</text>
<polygon fill="none" stroke="#2563eb" points="39.5,-116 39.5,-156 226.5,-156 226.5,-116 39.5,-116"/>
<text xml:space="preserve" text-anchor="start" x="47.5" y="-138.25" font-family="Arial" font-size="10.00" fill="#172033">Xem lịch sử và trạng thái booking</text>
<text xml:space="preserve" text-anchor="start" x="72.62" y="-126.25" font-family="Arial" font-size="10.00" fill="#172033">Gửi yêu cầu hoàn tiền</text>
<polygon fill="#bfdbfe" stroke="none" points="39.5,-88 39.5,-116 226.5,-116 226.5,-88 39.5,-88"/>
<polygon fill="none" stroke="#2563eb" points="39.5,-88 39.5,-116 226.5,-116 226.5,-88 39.5,-88"/>
<text xml:space="preserve" text-anchor="start" x="80.5" y="-99.5" font-family="Arial" font-weight="bold" font-size="10.00" fill="#172033">5. Tương tác và hỗ trợ</text>
<polygon fill="none" stroke="#2563eb" points="39.5,-24 39.5,-88 226.5,-88 226.5,-24 39.5,-24"/>
<text xml:space="preserve" text-anchor="start" x="47.5" y="-70.25" font-family="Arial" font-size="10.00" fill="#172033">Lưu hoặc bỏ tour yêu thích</text>
<text xml:space="preserve" text-anchor="start" x="47.5" y="-58.25" font-family="Arial" font-size="10.00" fill="#172033">Đánh giá tour đã hoàn tất</text>
<text xml:space="preserve" text-anchor="start" x="47.5" y="-46.25" font-family="Arial" font-size="10.00" fill="#172033">Nhắn tin với Host</text>
<text xml:space="preserve" text-anchor="start" x="47.5" y="-34.25" font-family="Arial" font-size="10.00" fill="#172033">Tư vấn bằng Gemini chatbot</text>
</g>
<!-- tourist&#45;&gt;tourist_functions -->
<g id="edge1" class="edge">
<title>tourist&#45;&gt;tourist_functions</title>
<path fill="none" stroke="#2563eb" stroke-width="1.2" d="M157,-489.72C157,-481.74 157,-471.5 157,-459.76"/>
</g>
<!-- host_functions -->
<g id="node5" class="node">
<title>host_functions</title>
<path fill="white" stroke="none" stroke-width="1.1" d="M412.12,-414C412.12,-414 279.88,-414 279.88,-414 273.88,-414 267.88,-408 267.88,-402 267.88,-402 267.88,-82 267.88,-82 267.88,-76 273.88,-70 279.88,-70 279.88,-70 412.12,-70 412.12,-70 418.12,-70 424.12,-76 424.12,-82 424.12,-82 424.12,-402 424.12,-402 424.12,-408 418.12,-414 412.12,-414"/>
<polygon fill="white" stroke="none" points="267.88,-70 267.88,-414 424.12,-414 424.12,-70 267.88,-70"/>
<polygon fill="#bbf7d0" stroke="none" points="267.88,-386 267.88,-414 424.12,-414 424.12,-386 267.88,-386"/>
<polygon fill="none" stroke="#16a34a" points="267.88,-386 267.88,-414 424.12,-414 424.12,-386 267.88,-386"/>
<text xml:space="preserve" text-anchor="start" x="287.12" y="-397.5" font-family="Arial" font-weight="bold" font-size="10.00" fill="#172033">1. Quản lý tài khoản Host</text>
<polygon fill="none" stroke="#16a34a" points="267.88,-322 267.88,-386 424.12,-386 424.12,-322 267.88,-322"/>
<text xml:space="preserve" text-anchor="start" x="275.88" y="-368.25" font-family="Arial" font-size="10.00" fill="#172033">Đăng ký yêu cầu Host</text>
<text xml:space="preserve" text-anchor="start" x="275.88" y="-356.25" font-family="Arial" font-size="10.00" fill="#172033">Chờ Admin xét duyệt</text>
<text xml:space="preserve" text-anchor="start" x="275.88" y="-344.25" font-family="Arial" font-size="10.00" fill="#172033">Đăng nhập Host</text>
<text xml:space="preserve" text-anchor="start" x="275.88" y="-332.25" font-family="Arial" font-size="10.00" fill="#172033">Cập nhật hồ sơ cá nhân</text>
<polygon fill="#bbf7d0" stroke="none" points="267.88,-294 267.88,-322 424.12,-322 424.12,-294 267.88,-294"/>
<polygon fill="none" stroke="#16a34a" points="267.88,-294 267.88,-322 424.12,-322 424.12,-294 267.88,-294"/>
<text xml:space="preserve" text-anchor="start" x="311.5" y="-305.5" font-family="Arial" font-weight="bold" font-size="10.00" fill="#172033">2. Quản lý tour</text>
<polygon fill="none" stroke="#16a34a" points="267.88,-230 267.88,-294 424.12,-294 424.12,-230 267.88,-230"/>
<text xml:space="preserve" text-anchor="start" x="275.88" y="-276.25" font-family="Arial" font-size="10.00" fill="#172033">Xem danh sách tour sở hữu</text>
<text xml:space="preserve" text-anchor="start" x="275.88" y="-264.25" font-family="Arial" font-size="10.00" fill="#172033">Thêm, sửa hoặc xóa tour</text>
<text xml:space="preserve" text-anchor="start" x="275.88" y="-252.25" font-family="Arial" font-size="10.00" fill="#172033">Quản lý ảnh và lịch trình</text>
<text xml:space="preserve" text-anchor="start" x="280.75" y="-240.25" font-family="Arial" font-size="10.00" fill="#172033">Gửi tour chờ Admin duyệt</text>
<polygon fill="#bbf7d0" stroke="none" points="267.88,-202 267.88,-230 424.12,-230 424.12,-202 267.88,-202"/>
<polygon fill="none" stroke="#16a34a" points="267.88,-202 267.88,-230 424.12,-230 424.12,-202 267.88,-202"/>
<text xml:space="preserve" text-anchor="start" x="301.75" y="-213.5" font-family="Arial" font-weight="bold" font-size="10.00" fill="#172033">3. Quản lý booking</text>
<polygon fill="none" stroke="#16a34a" points="267.88,-138 267.88,-202 424.12,-202 424.12,-138 267.88,-138"/>
<text xml:space="preserve" text-anchor="start" x="275.88" y="-184.25" font-family="Arial" font-size="10.00" fill="#172033">Xem danh sách booking</text>
<text xml:space="preserve" text-anchor="start" x="275.88" y="-172.25" font-family="Arial" font-size="10.00" fill="#172033">Xác nhận booking đã thanh toán</text>
<text xml:space="preserve" text-anchor="start" x="275.88" y="-160.25" font-family="Arial" font-size="10.00" fill="#172033">Đánh dấu booking hoàn tất</text>
<text xml:space="preserve" text-anchor="start" x="318.62" y="-148.25" font-family="Arial" font-size="10.00" fill="#172033">Hủy booking</text>
<polygon fill="#bbf7d0" stroke="none" points="267.88,-110 267.88,-138 424.12,-138 424.12,-110 267.88,-110"/>
<polygon fill="none" stroke="#16a34a" points="267.88,-110 267.88,-138 424.12,-138 424.12,-110 267.88,-110"/>
<text xml:space="preserve" text-anchor="start" x="296.88" y="-121.5" font-family="Arial" font-weight="bold" font-size="10.00" fill="#172033">4. Hỗ trợ khách hàng</text>
<polygon fill="none" stroke="#16a34a" points="267.88,-70 267.88,-110 424.12,-110 424.12,-70 267.88,-70"/>
<text xml:space="preserve" text-anchor="start" x="275.88" y="-92.25" font-family="Arial" font-size="10.00" fill="#172033">Xem hộp thư</text>
<text xml:space="preserve" text-anchor="start" x="275.88" y="-80.25" font-family="Arial" font-size="10.00" fill="#172033">Nhận và gửi tin nhắn với khách</text>
</g>
<!-- host&#45;&gt;host_functions -->
<g id="edge2" class="edge">
<title>host&#45;&gt;host_functions</title>
<path fill="none" stroke="#16a34a" stroke-width="1.2" d="M346,-489.72C346,-472.46 346,-444.7 346,-413.88"/>
</g>
<!-- admin_functions -->
<g id="node7" class="node">
<title>admin_functions</title>
<path fill="white" stroke="none" stroke-width="1.1" d="M616.88,-458C616.88,-458 477.12,-458 477.12,-458 471.12,-458 465.12,-452 465.12,-446 465.12,-446 465.12,-38 465.12,-38 465.12,-32 471.12,-26 477.12,-26 477.12,-26 616.88,-26 616.88,-26 622.88,-26 628.88,-32 628.88,-38 628.88,-38 628.88,-446 628.88,-446 628.88,-452 622.88,-458 616.88,-458"/>
<polygon fill="white" stroke="none" points="465.12,-26 465.12,-458 628.88,-458 628.88,-26 465.12,-26"/>
<polygon fill="#fecaca" stroke="none" points="465.12,-430 465.12,-458 628.88,-458 628.88,-430 465.12,-430"/>
<polygon fill="none" stroke="#dc2626" points="465.12,-430 465.12,-458 628.88,-458 628.88,-430 465.12,-430"/>
<text xml:space="preserve" text-anchor="start" x="493.75" y="-441.5" font-family="Arial" font-weight="bold" font-size="10.00" fill="#172033">1. Quản lý người dùng</text>
<polygon fill="none" stroke="#dc2626" points="465.12,-378 465.12,-430 628.88,-430 628.88,-378 465.12,-378"/>
<text xml:space="preserve" text-anchor="start" x="473.12" y="-412.25" font-family="Arial" font-size="10.00" fill="#172033">Xem, thêm và sửa tài khoản</text>
<text xml:space="preserve" text-anchor="start" x="473.12" y="-400.25" font-family="Arial" font-size="10.00" fill="#172033">Duyệt hoặc từ chối yêu cầu Host</text>
<text xml:space="preserve" text-anchor="start" x="480.25" y="-388.25" font-family="Arial" font-size="10.00" fill="#172033">Khóa hoặc mở khóa tài khoản</text>
<polygon fill="#fecaca" stroke="none" points="465.12,-350 465.12,-378 628.88,-378 628.88,-350 465.12,-350"/>
<polygon fill="none" stroke="#dc2626" points="465.12,-350 465.12,-378 628.88,-378 628.88,-350 465.12,-350"/>
<text xml:space="preserve" text-anchor="start" x="503.88" y="-361.5" font-family="Arial" font-weight="bold" font-size="10.00" fill="#172033">2. Kiểm duyệt tour</text>
<polygon fill="none" stroke="#dc2626" points="465.12,-310 465.12,-350 628.88,-350 628.88,-310 465.12,-310"/>
<text xml:space="preserve" text-anchor="start" x="473.12" y="-332.25" font-family="Arial" font-size="10.00" fill="#172033">Xem danh sách tour chờ duyệt</text>
<text xml:space="preserve" text-anchor="start" x="479.88" y="-320.25" font-family="Arial" font-size="10.00" fill="#172033">Phê duyệt hoặc từ chối tour</text>
<polygon fill="#fecaca" stroke="none" points="465.12,-282 465.12,-310 628.88,-310 628.88,-282 465.12,-282"/>
<polygon fill="none" stroke="#dc2626" points="465.12,-282 465.12,-310 628.88,-310 628.88,-282 465.12,-282"/>
<text xml:space="preserve" text-anchor="start" x="500.12" y="-293.5" font-family="Arial" font-weight="bold" font-size="10.00" fill="#172033">3. Quản lý giao dịch</text>
<polygon fill="none" stroke="#dc2626" points="465.12,-230 465.12,-282 628.88,-282 628.88,-230 465.12,-230"/>
<text xml:space="preserve" text-anchor="start" x="473.12" y="-264.25" font-family="Arial" font-size="10.00" fill="#172033">Xem danh sách giao dịch</text>
<text xml:space="preserve" text-anchor="start" x="473.12" y="-252.25" font-family="Arial" font-size="10.00" fill="#172033">Xác nhận đã thanh toán</text>
<text xml:space="preserve" text-anchor="start" x="498.25" y="-240.25" font-family="Arial" font-size="10.00" fill="#172033">Hủy giao dịch</text>
<polygon fill="#fecaca" stroke="none" points="465.12,-202 465.12,-230 628.88,-230 628.88,-202 465.12,-202"/>
<polygon fill="none" stroke="#dc2626" points="465.12,-202 465.12,-230 628.88,-230 628.88,-202 465.12,-202"/>
<text xml:space="preserve" text-anchor="start" x="500.12" y="-213.5" font-family="Arial" font-weight="bold" font-size="10.00" fill="#172033">4. Quản lý hoàn tiền</text>
<polygon fill="none" stroke="#dc2626" points="465.12,-162 465.12,-202 628.88,-202 628.88,-162 465.12,-162"/>
<text xml:space="preserve" text-anchor="start" x="473.12" y="-184.25" font-family="Arial" font-size="10.00" fill="#172033">Xem yêu cầu hoàn tiền</text>
<text xml:space="preserve" text-anchor="start" x="473.12" y="-172.25" font-family="Arial" font-size="10.00" fill="#172033">Chấp nhận hoặc từ chối hoàn tiền</text>
<polygon fill="#fecaca" stroke="none" points="465.12,-134 465.12,-162 628.88,-162 628.88,-134 465.12,-134"/>
<polygon fill="none" stroke="#dc2626" points="465.12,-134 465.12,-162 628.88,-162 628.88,-134 465.12,-134"/>
<text xml:space="preserve" text-anchor="start" x="484.38" y="-145.5" font-family="Arial" font-weight="bold" font-size="10.00" fill="#172033">5. Nội dung và khuyến mãi</text>
<polygon fill="none" stroke="#dc2626" points="465.12,-94 465.12,-134 628.88,-134 628.88,-94 465.12,-94"/>
<text xml:space="preserve" text-anchor="start" x="473.12" y="-116.25" font-family="Arial" font-size="10.00" fill="#172033">Thêm, sửa hoặc xóa bài viết</text>
<text xml:space="preserve" text-anchor="start" x="473.12" y="-104.25" font-family="Arial" font-size="10.00" fill="#172033">Thêm, sửa hoặc xóa mã giảm giá</text>
<polygon fill="#fecaca" stroke="none" points="465.12,-66 465.12,-94 628.88,-94 628.88,-66 465.12,-66"/>
<polygon fill="none" stroke="#dc2626" points="465.12,-66 465.12,-94 628.88,-94 628.88,-66 465.12,-66"/>
<text xml:space="preserve" text-anchor="start" x="501.25" y="-77.5" font-family="Arial" font-weight="bold" font-size="10.00" fill="#172033">6. Quản lý hệ thống</text>
<polygon fill="none" stroke="#dc2626" points="465.12,-26 465.12,-66 628.88,-66 628.88,-26 465.12,-26"/>
<text xml:space="preserve" text-anchor="start" x="473.12" y="-48.25" font-family="Arial" font-size="10.00" fill="#172033">Xem dashboard quản trị</text>
<text xml:space="preserve" text-anchor="start" x="473.12" y="-36.25" font-family="Arial" font-size="10.00" fill="#172033">Theo dõi doanh thu và hoạt động</text>
</g>
<!-- admin&#45;&gt;admin_functions -->
<g id="edge3" class="edge">
<title>admin&#45;&gt;admin_functions</title>
<path fill="none" stroke="#dc2626" stroke-width="1.2" d="M527,-489.72C527,-481.32 527,-470.44 527,-457.94"/>
</g>
</g>
</svg>
